<?xml version="1.0" encoding="utf-8"?>
<!-- Generator: Adobe Illustrator 16.0.0, SVG Export Plug-In . SVG Version: 6.00 Build 0)  -->
<!DOCTYPE svg PUBLIC "-//W3C//DTD SVG 1.1//EN" "http://www.w3.org/Graphics/SVG/1.1/DTD/svg11.dtd">
<svg version="1.1" id="Capa_1" xmlns="http://www.w3.org/2000/svg" xmlns:xlink="http://www.w3.org/1999/xlink" x="0px" y="0px"
	 width="12.917px" height="13.083px" viewBox="0 0 12.917 13.083" enable-background="new 0 0 12.917 13.083" xml:space="preserve">
<g>
	<path fill="#FFFFFF" d="M6.387,0.362c-3.406,0-6.168,2.761-6.168,6.167c0,3.406,2.762,6.167,6.168,6.167
		c3.405,0,6.166-2.761,6.166-6.167C12.553,3.123,9.792,0.362,6.387,0.362z M6.387,11.195c-2.578,0-4.668-2.089-4.668-4.667
		c0-2.578,2.09-4.667,4.668-4.667c2.577,0,4.666,2.089,4.666,4.667C11.053,9.106,8.964,11.195,6.387,11.195z"/>
	<polygon fill="#FFFFFF" points="6.305,7.338 3.927,4.959 2.911,5.975 6.305,9.368 9.83,5.844 8.813,4.829 	"/>
</g>
</svg>
