<?xml version="1.0" encoding="utf-8"?>
<!-- Generator: Adobe Illustrator 16.0.0, SVG Export Plug-In . SVG Version: 6.00 Build 0)  -->
<!DOCTYPE svg PUBLIC "-//W3C//DTD SVG 1.1//EN" "http://www.w3.org/Graphics/SVG/1.1/DTD/svg11.dtd">
<svg version="1.1" id="Capa_1" xmlns="http://www.w3.org/2000/svg" xmlns:xlink="http://www.w3.org/1999/xlink" x="0px" y="0px"
	 width="12.833px" height="12.75px" viewBox="0 0 12.833 12.75" enable-background="new 0 0 12.833 12.75" xml:space="preserve">
<g>
	<path fill="#FFFFFF" d="M0.391,6.445c0,3.406,2.76,6.168,6.166,6.168s6.168-2.762,6.168-6.168c0-3.405-2.762-6.166-6.168-6.166
		S0.391,3.04,0.391,6.445z M11.225,6.445c0,2.578-2.09,4.668-4.668,4.668s-4.666-2.09-4.666-4.668c0-2.577,2.088-4.666,4.666-4.666
		S11.225,3.868,11.225,6.445z"/>
	<polygon fill="#FFFFFF" points="9.124,4.888 7.944,3.709 6.471,5.182 4.999,3.709 3.82,4.888 5.292,6.361 3.819,7.834 4.999,9.013 
		6.471,7.541 7.944,9.013 9.124,7.834 7.651,6.362 	"/>
</g>
</svg>
